<?xml version="1.0" encoding="utf-8"?>
<!-- Generator: Adobe Illustrator 24.2.3, SVG Export Plug-In . SVG Version: 6.00 Build 0)  -->
<svg version="1.1" id="Layer_1" xmlns="http://www.w3.org/2000/svg" xmlns:xlink="http://www.w3.org/1999/xlink" x="0px" y="0px"
	 viewBox="0 0 19 19" style="enable-background:new 0 0 19 19;" xml:space="preserve">
<g>
	<path d="M14.7,0H4.3C1.9,0,0,1.9,0,4.3v10.4C0,17.1,1.9,19,4.3,19h10.4c2.4,0,4.3-1.9,4.3-4.3V4.3C19,1.9,17.1,0,14.7,0z M18,14.7
		c0,1.8-1.5,3.3-3.3,3.3H4.3C2.5,18,1,16.5,1,14.7V4.3C1,2.5,2.5,1,4.3,1h10.4C16.5,1,18,2.5,18,4.3V14.7z M14.5,9.5
		c0,0.3-0.2,0.5-0.5,0.5h-4v4c0,0.3-0.2,0.5-0.5,0.5S9,14.3,9,14v-4H5c-0.3,0-0.5-0.2-0.5-0.5S4.7,9,5,9h4V5c0-0.3,0.2-0.5,0.5-0.5
		S10,4.7,10,5v4h4C14.3,9,14.5,9.2,14.5,9.5z"/>
</g>
<text transform="matrix(1 0 0 1 -6.5 40.5)" style="font-family:'HelveticaNeue-Bold'; font-size:5px;">Created by Muhammad Rendi</text>
<text transform="matrix(1 0 0 1 -6.5 45.5)" style="font-family:'HelveticaNeue-Bold'; font-size:5px;">from the Noun Project</text>
</svg>
