<?xml version="1.0" encoding="utf-8"?>
<!-- Generator: Adobe Illustrator 24.2.3, SVG Export Plug-In . SVG Version: 6.00 Build 0)  -->
<svg version="1.1"
	 id="Layer_1" xmlns:cc="http://creativecommons.org/ns#" xmlns:dc="http://purl.org/dc/elements/1.1/" xmlns:inkscape="http://www.inkscape.org/namespaces/inkscape" xmlns:rdf="http://www.w3.org/1999/02/22-rdf-syntax-ns#" xmlns:sodipodi="http://sodipodi.sourceforge.net/DTD/sodipodi-0.dtd" xmlns:svg="http://www.w3.org/2000/svg"
	 xmlns="http://www.w3.org/2000/svg" xmlns:xlink="http://www.w3.org/1999/xlink" x="0px" y="0px" viewBox="0 0 73.5 54.5"
	 style="enable-background:new 0 0 73.5 54.5;" xml:space="preserve">
<g transform="translate(0,-952.36218)">
	<path d="M63.6,952.4c-0.1,0.1-3.1,3-7,6.7s-8.9,8.4-13.9,13.2s-10,9.5-13.9,13.2c-1.4,1.3-1.6,1.5-2.6,2.4L9.1,973L0,983.6l22,19
		l4.9,4.2l4.6-4.6c0.1-0.1,3.1-3,7-6.7s8.9-8.4,13.9-13.2s10-9.5,13.9-13.2c3.9-3.7,6.3-6,7.2-6.9L63.6,952.4L63.6,952.4z"/>
</g>
</svg>
