<?xml version="1.0" encoding="utf-8"?>
<!-- Generator: Adobe Illustrator 24.2.3, SVG Export Plug-In . SVG Version: 6.00 Build 0)  -->
<svg version="1.1" id="Layer_1" xmlns="http://www.w3.org/2000/svg" xmlns:xlink="http://www.w3.org/1999/xlink" x="0px" y="0px"
	 viewBox="0 0 24 24" style="enable-background:new 0 0 24 24;" xml:space="preserve">
<g>
	<path d="M10,17c-0.3,0-0.5-0.1-0.7-0.3l-4-4c-0.4-0.4-0.4-1,0-1.4c0.4-0.4,1-0.4,1.4,0l3.3,3.3l7.3-7.3c0.4-0.4,1-0.4,1.4,0
		s0.4,1,0,1.4l-8,8C10.5,16.9,10.3,17,10,17z"/>
	<path d="M12,24C5.4,24,0,18.6,0,12S5.4,0,12,0s12,5.4,12,12C24,18.6,18.6,24,12,24z M12,2C6.5,2,2,6.5,2,12s4.5,10,10,10
		s10-4.5,10-10C22,6.5,17.5,2,12,2z"/>
</g>
</svg>
